<?xml version="1.0" standalone="no"?>
<!DOCTYPE svg PUBLIC "-//W3C//DTD SVG 20010904//EN"
 "http://www.w3.org/TR/2001/REC-SVG-20010904/DTD/svg10.dtd">
<svg version="1.0" xmlns="http://www.w3.org/2000/svg"
 width="530.000000pt" height="481.000000pt" viewBox="0 0 530.000000 481.000000"
 preserveAspectRatio="xMidYMid meet">

<g transform="translate(0.000000,481.000000) scale(0.100000,-0.100000)"
fill="#000000" stroke="none">
<path d="M3253 4344 c-12 -3 -42 -23 -66 -44 -57 -50 -82 -59 -167 -62 -74 -2
-97 8 -102 45 -5 37 -48 34 -97 -7 -62 -52 -95 -58 -183 -34 -89 24 -200 18
-264 -14 -65 -32 -131 -94 -185 -174 -69 -103 -82 -110 -174 -96 -41 6 -81 9
-90 6 -25 -10 -36 -40 -42 -115 -3 -38 -9 -69 -14 -69 -4 0 -36 25 -71 55 -65
57 -89 69 -129 63 -33 -4 -46 -55 -29 -108 14 -43 8 -106 -16 -151 -11 -22
-39 -41 -109 -74 -52 -25 -100 -45 -107 -45 -7 0 -28 -9 -47 -21 -23 -14 -44
-19 -63 -15 -38 7 -77 -27 -84 -75 -5 -29 2 -54 30 -116 19 -43 42 -106 49
-139 8 -33 22 -74 31 -92 13 -24 14 -37 6 -52 -10 -18 -21 -20 -108 -20 -150
0 -228 -10 -252 -32 -28 -26 -35 -63 -20 -109 7 -21 10 -42 7 -46 -4 -3 -30
-10 -58 -14 -28 -4 -57 -13 -65 -20 -24 -20 -17 -68 13 -95 91 -80 103 -93 97
-108 -3 -8 -35 -25 -70 -36 -65 -22 -94 -41 -94 -64 0 -21 59 -106 74 -106 22
0 76 -56 76 -79 0 -14 -8 -22 -27 -26 -16 -4 -35 -10 -43 -14 -19 -10 -25 -83
-10 -111 12 -22 10 -26 -78 -133 -55 -65 -82 -118 -82 -156 0 -46 30 -61 125
-61 72 -1 85 -4 135 -33 68 -41 84 -80 55 -133 -17 -32 -17 -35 -2 -52 13 -14
14 -21 5 -30 -17 -17 15 -27 41 -13 30 16 40 13 47 -13 3 -13 15 -28 27 -35
12 -6 33 -20 47 -31 18 -14 47 -22 103 -27 59 -4 80 -10 84 -22 3 -9 15 -36
27 -61 19 -38 28 -47 63 -55 47 -12 76 -35 104 -84 36 -63 195 -174 206 -143
8 22 29 13 87 -38 32 -28 76 -60 99 -72 42 -21 118 -30 133 -15 18 18 -65 77
-181 127 -118 51 -194 98 -267 168 -20 19 -54 44 -74 56 -21 12 -58 48 -84 81
-54 70 -96 96 -198 124 -118 32 -131 54 -86 143 l26 52 -27 24 -28 24 13 65
c17 87 4 100 -46 44 -30 -33 -44 -41 -71 -41 -41 0 -73 15 -73 35 0 9 29 54
65 101 36 47 63 89 60 95 -4 5 -18 9 -33 9 -21 1 -45 -19 -112 -91 -79 -84
-89 -91 -130 -95 -74 -8 -81 7 -34 63 22 26 53 66 67 89 15 22 43 48 62 57 40
19 41 23 18 72 -23 48 -9 61 92 80 44 9 84 20 89 25 11 11 -30 49 -121 111
-81 55 -115 95 -93 109 7 5 55 18 107 30 51 12 95 25 98 30 3 5 -31 50 -76
101 -44 50 -77 95 -72 100 4 4 42 9 83 11 95 4 98 15 30 97 -29 34 -49 68 -46
76 7 19 80 28 198 23 89 -4 113 -9 175 -36 75 -34 143 -42 143 -18 0 19 -25
38 -74 57 -45 18 -46 21 -137 279 -67 189 -65 207 17 239 30 11 85 28 120 36
35 8 88 27 117 42 40 21 65 27 110 26 64 -1 63 -4 42 82 -8 33 -15 77 -15 98
0 31 3 37 20 37 12 0 33 -6 48 -14 15 -8 43 -17 62 -21 50 -9 71 10 81 75 5
31 17 62 30 76 21 23 22 23 48 5 14 -10 53 -32 86 -50 34 -17 84 -51 112 -74
56 -47 163 -168 163 -185 0 -7 11 -19 25 -28 23 -15 128 -153 155 -204 8 -15
10 -43 6 -79 -3 -31 -2 -82 4 -115 16 -101 46 -109 65 -18 6 28 16 48 25 50
18 3 165 -89 225 -140 22 -19 61 -49 88 -67 26 -17 47 -35 47 -40 0 -4 -20
-28 -43 -53 -55 -57 -62 -80 -32 -108 20 -19 27 -20 71 -10 62 14 72 23 85 76
7 27 18 46 30 49 27 9 85 -11 174 -59 l80 -43 3 -45 c2 -33 -5 -61 -28 -109
-16 -35 -30 -71 -30 -79 0 -8 -6 -22 -13 -31 -19 -26 -131 -78 -200 -93 -34
-8 -91 -25 -127 -39 -194 -75 -193 -74 -315 -81 -180 -11 -262 -24 -347 -57
-47 -17 -96 -29 -125 -29 -76 0 -341 38 -422 60 -111 30 -284 22 -320 -15 -14
-14 -14 -20 2 -66 25 -69 136 -254 187 -311 50 -56 125 -108 155 -108 12 0 52
-24 90 -54 70 -56 318 -192 437 -239 82 -33 158 -36 158 -5 0 13 -51 56 -75
63 -11 3 -49 17 -85 30 -36 13 -98 34 -137 45 -58 17 -80 29 -109 60 -23 25
-72 56 -131 85 -60 29 -121 69 -167 109 -40 35 -87 71 -104 80 -18 9 -32 23
-32 32 0 8 -11 37 -25 64 -28 56 -32 80 -11 80 8 0 48 -6 89 -14 81 -16 141
-42 197 -87 19 -16 64 -40 100 -55 36 -14 71 -31 78 -36 7 -6 52 -13 100 -17
82 -6 90 -8 133 -43 57 -47 165 -98 207 -98 17 0 32 4 32 9 0 15 -104 106
-162 140 -59 36 -76 62 -98 149 -12 48 -8 62 22 62 12 0 50 16 86 36 55 31 80
38 175 49 62 8 152 21 200 29 86 15 388 109 475 147 55 24 88 24 119 -1 22
-17 41 -20 142 -20 97 0 130 4 203 26 140 43 198 17 206 -94 3 -48 -2 -72 -31
-147 -43 -114 -51 -149 -38 -174 10 -17 2 -26 -68 -75 -51 -36 -93 -58 -120
-62 -23 -4 -67 -22 -99 -42 -96 -58 -105 -62 -167 -62 -33 0 -102 -10 -153
-22 -90 -21 -94 -22 -156 -5 -36 9 -126 24 -201 32 -75 9 -157 20 -181 25 -49
11 -94 -1 -94 -25 0 -30 46 -46 164 -55 64 -5 119 -11 124 -14 5 -3 67 -12
138 -21 71 -9 138 -22 150 -30 20 -13 44 -80 44 -125 0 -28 -39 -42 -82 -29
-42 12 -243 12 -286 0 -24 -7 -42 -6 -67 5 -54 22 -247 15 -273 -10 -3 -4 2
-14 12 -24 14 -14 38 -17 159 -18 78 0 172 -6 209 -13 36 -7 95 -11 130 -8 35
3 128 10 208 16 80 6 163 15 185 21 22 5 85 10 140 10 55 0 118 5 140 11 22 6
60 15 85 20 101 21 273 173 254 223 -12 31 -31 21 -169 -92 -72 -58 -104 -72
-97 -42 2 7 7 62 11 122 4 60 12 113 17 118 6 6 33 25 62 43 88 55 184 129
259 201 68 64 73 72 73 110 0 51 24 88 53 84 27 -4 36 -52 14 -76 -8 -10 -17
-36 -21 -59 -11 -76 -45 -146 -105 -222 -74 -92 -90 -126 -69 -148 22 -22 38
-10 103 77 30 41 61 82 68 90 6 8 11 19 9 24 -2 5 8 21 22 35 26 28 45 91 46
154 0 22 9 49 21 66 27 36 46 164 30 204 -17 45 -83 69 -157 57 -152 -23 -199
-23 -242 -1 -73 37 -117 146 -74 183 9 9 35 25 58 36 72 36 82 106 24 163 -38
39 -74 37 -152 -5 -65 -36 -176 -70 -264 -81 -51 -6 -52 -6 -110 45 -65 57
-122 90 -155 90 -12 0 -63 22 -113 49 -50 27 -107 54 -128 60 -20 7 -56 29
-80 50 -23 21 -63 51 -88 66 -41 26 -148 112 -210 169 -14 12 -42 54 -63 92
-21 39 -65 102 -98 140 -33 38 -85 103 -115 144 -37 52 -73 88 -117 117 -34
23 -76 56 -92 73 l-30 31 30 57 c33 64 190 229 243 256 32 16 37 16 115 -4 89
-24 211 -29 245 -11 30 16 78 14 114 -5 25 -13 50 -15 109 -11 90 6 160 34
229 92 42 35 48 37 95 31 27 -3 80 -15 117 -27 62 -21 71 -21 143 -9 43 7 82
19 88 25 8 8 23 9 50 3 22 -5 70 -4 115 1 63 8 81 7 97 -5 11 -8 43 -30 71
-49 71 -47 122 -110 138 -170 22 -80 46 -189 46 -207 0 -10 -20 -41 -43 -70
-70 -86 -77 -100 -103 -224 -13 -66 -38 -151 -54 -189 -16 -39 -32 -95 -35
-125 -12 -99 -26 -134 -80 -200 -63 -78 -77 -103 -69 -124 11 -29 33 -16 85
49 50 64 96 105 119 105 10 0 23 -25 75 -148 14 -32 30 -49 59 -65 37 -19 58
-22 200 -24 154 -1 160 -2 178 -25 22 -28 41 -84 34 -97 -3 -5 -36 -21 -73
-36 -126 -50 -138 -70 -78 -129 36 -34 65 -49 118 -60 38 -9 43 -29 16 -65
-21 -29 -21 -31 -5 -56 25 -39 17 -56 -44 -90 -86 -48 -82 -59 49 -162 l23
-19 -26 -52 c-14 -28 -36 -57 -48 -63 -13 -6 -86 -73 -163 -149 -77 -75 -154
-147 -172 -159 -39 -26 -72 -108 -81 -201 l-7 -65 -40 1 c-22 0 -63 4 -91 8
l-52 8 -7 -80 c-4 -45 -13 -89 -20 -98 -11 -16 -16 -16 -80 0 -54 13 -70 14
-76 4 -4 -6 -11 -57 -15 -111 l-7 -99 -64 6 c-35 4 -77 9 -93 13 -23 4 -31 1
-35 -13 -20 -62 -95 -162 -113 -150 -5 3 -15 26 -21 50 -13 51 -25 63 -48 45
-12 -11 -14 -27 -11 -79 7 -95 18 -110 79 -110 80 0 111 24 169 128 13 23 26
42 29 42 4 0 39 -23 80 -50 80 -54 135 -66 145 -32 20 73 19 85 -12 111 -37
31 -51 86 -28 116 11 16 27 20 73 21 32 1 65 2 73 3 22 2 38 47 42 123 2 37 6
70 9 73 3 3 30 0 61 -6 46 -9 60 -9 86 5 17 9 38 13 48 9 14 -5 15 -3 4 17 -9
17 -9 48 -1 136 14 138 16 144 51 144 28 0 90 39 125 80 11 13 42 40 68 61 37
30 58 39 86 39 40 0 61 14 61 42 0 27 43 119 84 178 43 63 45 85 9 104 -29 14
-80 64 -72 69 2 1 24 10 49 18 l45 16 5 59 5 59 46 8 c46 9 46 9 46 48 0 21
-5 43 -11 48 -7 6 -53 30 -103 55 -50 25 -93 52 -96 60 -8 21 17 44 63 56 22
6 52 21 67 34 l27 23 -26 44 c-14 24 -58 77 -96 117 -39 40 -73 81 -77 91 -3
11 3 46 14 79 12 33 21 80 22 104 2 63 -18 173 -41 224 -11 24 -29 87 -40 139
-11 52 -27 109 -35 126 -9 17 -20 56 -25 87 -10 58 -35 122 -54 135 -6 4 -27
12 -47 17 -45 12 -61 42 -84 155 -9 44 -25 98 -36 121 -29 61 -122 149 -195
185 -63 31 -65 31 -186 27 -83 -4 -135 -11 -160 -22 -46 -20 -139 -21 -203 -1
-53 15 -167 26 -202 19z m1020 -581 c-18 -7 -17 -16 17 -100 34 -85 36 -101
14 -110 -20 -7 -154 45 -161 63 -3 7 5 26 17 41 40 52 113 123 119 117 3 -4 0
-9 -6 -11z m116 -381 l34 -28 -27 -29 c-15 -17 -42 -50 -59 -74 -39 -54 -61
-63 -112 -45 -60 20 -90 47 -93 83 -5 51 11 63 78 55 66 -7 95 4 104 41 8 33
33 32 75 -3z m-249 -210 c30 -21 82 -49 114 -62 l59 -24 31 36 c17 20 38 46
47 59 13 19 21 21 53 15 20 -4 40 -14 43 -23 3 -8 -3 -45 -15 -82 -11 -36 -26
-92 -32 -123 -11 -54 -13 -58 -43 -62 -84 -13 -139 -16 -177 -10 -46 8 -36 -8
-119 180 -42 93 -51 134 -29 134 7 0 37 -17 68 -38z m-421 -489 c37 -28 101
-122 101 -149 0 -25 -26 -44 -61 -44 -12 0 -36 -4 -53 -9 -81 -24 -186 -43
-207 -37 -13 3 -44 24 -69 45 l-45 39 23 78 c13 44 26 81 28 83 11 11 97 19
173 16 63 -2 90 -8 110 -22z m467 -306 c2 -7 -11 -40 -31 -72 -20 -34 -37 -78
-41 -106 -6 -47 -8 -49 -84 -98 -42 -28 -83 -57 -90 -66 -27 -32 -29 -13 -5
32 20 35 30 73 39 155 10 84 17 113 32 129 32 32 170 52 180 26z m-2292 -177
c40 -17 136 -38 257 -55 35 -5 36 -6 49 -72 12 -61 11 -67 -5 -79 -29 -21 -64
-8 -260 94 -33 17 -86 43 -117 56 -60 26 -72 47 -40 65 26 16 66 13 116 -9z
m1836 -431 c0 -52 -35 -204 -50 -219 -22 -22 -140 -39 -254 -37 l-89 2 -29 47
c-18 30 -27 55 -23 67 7 24 136 71 197 71 46 0 104 23 165 64 47 32 83 34 83
5z"/>
<path d="M1986 3647 c-21 -32 -34 -104 -41 -237 -7 -141 -22 -274 -36 -316 -5
-17 -10 -57 -11 -88 -1 -53 1 -59 38 -97 21 -22 65 -60 97 -85 55 -41 63 -44
120 -44 44 0 77 7 112 24 79 37 82 43 115 206 6 30 13 65 16 77 11 43 -180
486 -227 529 -63 57 -156 73 -183 31z m155 -123 c37 -84 39 -100 14 -96 -46 6
-104 34 -110 53 -10 30 5 98 23 108 27 15 43 1 73 -65z m54 -271 c-9 -53 -36
-104 -65 -125 -27 -19 -150 -37 -150 -22 0 6 9 27 20 49 18 36 23 39 56 36 31
-2 40 3 81 48 25 28 50 51 56 51 5 0 6 -16 2 -37z m111 -100 c19 -26 17 -85
-6 -143 -11 -28 -20 -61 -20 -74 0 -58 -77 -111 -139 -94 -80 23 -181 107
-181 152 0 37 13 43 102 49 105 7 139 23 174 82 28 48 48 56 70 28z"/>
<path d="M2137 913 c-11 -10 -8 -51 4 -58 13 -8 91 -29 209 -55 47 -10 105
-26 129 -34 24 -9 54 -16 67 -16 13 0 32 -9 43 -21 14 -15 42 -24 108 -34 49
-7 116 -23 150 -34 85 -29 200 -29 236 -1 28 22 49 25 77 10 27 -15 48 -3 60
36 8 25 23 40 52 55 l40 21 -33 28 c-41 35 -107 69 -140 72 -23 3 -24 1 -24
-64 0 -36 -3 -69 -7 -73 -3 -4 -37 -11 -75 -16 -130 -16 -169 -12 -313 36 -74
25 -182 57 -240 71 -58 14 -147 39 -197 55 -92 29 -134 35 -146 22z"/>
</g>
</svg>
